<?xml version="1.0" encoding="UTF-8"?>
<svg id="Layer_2" data-name="Layer 2" xmlns="http://www.w3.org/2000/svg" viewBox="0 0 1660.52 2028.19">
  <defs>
    <style>
      .cls-1 {
        fill: #00d62b;
      }

      .cls-2 {
        fill: #f5f5ee;
      }

      .cls-3 {
        fill: #010202;
      }

      .cls-4 {
        fill: #0dc930;
      }

      .cls-5 {
        fill: #1d1e1d;
      }
    </style>
  </defs>
  <g id="Layer_1-2" data-name="Layer 1">
    <g>
      <path class="cls-1" d="M251.13,771.42c6.4-5.02,28.34-30.41,37.27-39.02,29.68-29.08,60.37-57.29,93.19-82.82,16.54-12.87,35.16-30.5,56.62-33.63,5.53-.79,11.14-.84,16.69-.15,21.07,2.58,40.93,18.03,59.56,27.93,93.45,49.68,202.27,73.61,308.2,74.42,79.04.94,157.71-10.97,232.94-35.27,29.78-9.72,58.7-21.9,86.47-36.4,30.81-16.36,68.73-46.98,102.78-23.23,36.81,25.67,82.38,62.42,113.39,94.5l9.67,9.1c9.18,9.16,18.13,18.55,26.83,28.18,3.91,4.25,13.03,14.7,17.09,17.79,10.28,5.02,31.12,10.94,42.85,14.64,44.07,14.98,89.21,28.14,133.28,43.43l9.35,3.03c15.32,3.86,34.09,11.52,49.65,16.28,3.71.97,5.69,1.37,9.12,2.97l-.19,305.77c-6.39-.05-32.73-.96-36.56,1.71,4.82,8.47,14.06,49.79,16.67,61.07,27.95,120.4,35.55,247.49,4.08,367.65-37.07,141.49-128.18,252.63-255.94,323.35-168.8,93.43-375.26,116.74-565.5,115.39-125.57-.89-243.48-11.31-365.07-44.86-156.33-43.13-302.04-127.14-383.25-271.84-92.05-164-83.32-360.45-33.11-536.21,1.35-4.72,2.4-9.11,4.45-13.58-2.51-4.15-31.91-2.55-37.81-2.52,1.66-73.8-1.11-148.86.02-222.79.41-26.61.76-56.19-.51-82.64,2.25-1.03,5.01-1.82,7.4-2.6,12.87-5.04,36.18-11.83,50.05-16.44l134.22-43.93c15.73-5.25,42.42-12.14,56.11-19.3Z"/>
      <path d="M251.13,771.42c6.4-5.02,28.34-30.41,37.27-39.02,29.68-29.08,60.37-57.29,93.19-82.82,16.54-12.87,35.16-30.5,56.62-33.63,5.53-.79,11.14-.84,16.69-.15,21.07,2.58,40.93,18.03,59.56,27.93,93.45,49.68,202.27,73.61,308.2,74.42,79.04.94,157.71-10.97,232.94-35.27,29.78-9.72,58.7-21.9,86.47-36.4,30.81-16.36,68.73-46.98,102.78-23.23,36.81,25.67,82.38,62.42,113.39,94.5l9.67,9.1c9.18,9.16,18.13,18.55,26.83,28.18,3.91,4.25,13.03,14.7,17.09,17.79,10.28,5.02,31.12,10.94,42.85,14.64,44.07,14.98,89.21,28.14,133.28,43.43l9.35,3.03c15.32,3.86,34.09,11.52,49.65,16.28,3.71.97,5.69,1.37,9.12,2.97l-.19,305.77c-6.39-.05-32.73-.96-36.56,1.71-.65-.41-1.3-.81-1.95-1.22-27.69-.57-65.29-.23-91.96-.22l-214.18-.03c-40.26,0-83.13.74-123.07-.4-10.39,20.72-29.95,33.76-53.37,33.84-85.03.29-170.11.33-255.15-.06-3.11,0-6.76-.27-9.59-1.52-11.42-11.14,6.68-34.42-25.67-31.98-16.47,1.24-37.95-1.19-55.06.1-2.4,6.62-5.36,14.61-1.61,21.33,8.55,15.33,38.27,23.52,53.63,28.14l131.41,39.75c29.52,8.81,59.24,17.22,88.85,26.59,40.23,12.73,95.07,23.25,116.91,64.3,18.26,34.31,18.31,137.3,8.73,173.34-22.89,86.19-156.15,87.83-226.99,86.13-14.37,0-37.57-1.6-50.68,1.06-10.93,7.74-12.57,13.24-13.69,26.47-.38,1.15-1.54,4.4-1.63,5.4-5.15,7.16-6.62,8.71-13.55,13.64-29.62,3.53-70.41-.89-100.94.33-28.81,1.15-18.33-25.38-30.16-39.6-10.27-11.52-36.03-7.24-50.81-7.3-71.6-.29-162.72,3.3-216.93-52.16-21.74-22.25-19.57-50.36-20.5-78.92-1.3-39.74,1.4-76.17,48.82-85.64,11.56-2.29,28.67-.97,41.14-.92l63.07.08,87.71-.08c32.85-.02,79.86-8.23,86.12,35.9,1.71,12.06.54,28.31,9.63,37.45,14.28,14.35,46.76,13.55,60.86-.55,14.6-13.45,14.67-58.94-.56-70.89-18.7-14.67-49.91-21.04-73.08-27.78l-146.23-42.21c-49.3-14.16-117.94-29.39-155.45-66.96-22.37-22.4-22.91-56.98-22-86.94l-285.94.07-87.24-.05c-13.83-.03-28.51-.2-42.35.12-3.11.07-2.78.46-4.22,2.36-2.51-4.15-31.91-2.55-37.81-2.52,1.66-73.8-1.11-148.86.02-222.79.41-26.61.76-56.19-.51-82.64,2.25-1.03,5.01-1.82,7.4-2.6,12.87-5.04,36.18-11.83,50.05-16.44l134.22-43.93c15.73-5.25,42.42-12.14,56.11-19.3Z"/>
      <path class="cls-1" d="M251.13,771.42c6.4-5.02,28.34-30.41,37.27-39.02,29.68-29.08,60.37-57.29,93.19-82.82,16.54-12.87,35.16-30.5,56.62-33.63,5.53-.79,11.14-.84,16.69-.15,21.07,2.58,40.93,18.03,59.56,27.93,93.45,49.68,202.27,73.61,308.2,74.42,79.04.94,157.71-10.97,232.94-35.27,29.78-9.72,58.7-21.9,86.47-36.4,30.81-16.36,68.73-46.98,102.78-23.23,36.81,25.67,82.38,62.42,113.39,94.5l9.67,9.1c9.18,9.16,18.13,18.55,26.83,28.18,3.91,4.25,13.03,14.7,17.09,17.79,10.28,5.02,31.12,10.94,42.85,14.64l-4.48.98c-.45,2.51-.47,1.24.09,3.8-4.79-.43-5.84-3.3-10.58-2.64-3.15,1.87-5.31,7.82-5.42,11.33l2.11,2.89c5.99,6.76,10.05,11.59,15.39,18.84,1.02,1.45,4.99,6.86,5.59,8.19,4.83,5.29,11.93,15.64,15.71,21.89-17.49,1.29-44.01.51-62.1.52h-113.96s-349.41.05-349.41.05l-504.33-.02-164.87-.09c-29.76,0-60.57.71-90.25-.36l12.22-18.76,1.1-1.46c14.53-16.15,35.41-43.49,49.65-61.19Z"/>
      <path class="cls-5" d="M1411.82,772.83c10.28,5.02,31.12,10.94,42.85,14.64l-4.48.98c-.45,2.51-.47,1.24.09,3.8-4.79-.43-5.84-3.3-10.58-2.64-3.15,1.87-5.31,7.82-5.42,11.33l-8.48-10.96-4.06-4.31c-2.55-3.65-4.63-6.15-7.53-9.54l-2.39-3.28Z"/>
      <path class="cls-4" d="M1425.8,789.96l8.48,10.96,2.11,2.89c-1.64,4.46.59,5.4-4.7,6.61-7.41-3.25-8.07-13.6-5.89-20.46Z"/>
      <path class="cls-4" d="M1451.78,822.66c1.02,1.45,4.99,6.86,5.59,8.19.76,2.5.81,2.43.77,5.02-2.09,3.41-.65,2.39-4.34,3.37-5.19-1.26-7.01-1.79-7.17-7.4,3.45-3.69,4.54-4.2,5.15-9.17Z"/>
      <path class="cls-4" d="M1421.74,785.65l-.99,1.92c-2.87,1.42-4.91,2.73-7.89,1.73-3.77-4.73-3.51-9.44,1.35-13.19,2.9,3.39,4.98,5.89,7.53,9.54Z"/>
      <path class="cls-4" d="M1367.9,726.86c-1.09,3.39-.11,2.63-2.27,4-5.19-1.49-10.42-5.05-10.42-10.97l3.02-2.12,9.67,9.1Z"/>
      <path class="cls-4" d="M765.08,718.06c11.43-.21,20.3.04,31.49,1.51-7.71,1.49-25.35,3.41-31.49-1.51Z"/>
      <path class="cls-5" d="M251.13,771.42c-14.24,17.71-35.13,45.04-49.65,61.19l-1.1,1.46-12.22,18.76c-9.17.73-25.82.2-35.64.2h-68.07s-47.29-.07-47.29-.07c-5.64-.02-22.26.82-26.41-1.88,12.87-5.04,36.18-11.83,50.05-16.44l134.22-43.93c15.73-5.25,42.42-12.14,56.11-19.3Z"/>
      <path class="cls-5" d="M196.74,824.8c2.6-2.99.96-1.89,5.49-2.68,1.29,2.89-.86,5.46-.75,10.5l-1.1,1.46c-3.18.89-4.77,1.3-8.02,1.78l-.51-.94c.29-4.49,2.15-4.81,4.1-8.57l.79-1.54Z"/>
      <path class="cls-5" d="M191.84,834.91l-2.77-4.04,2.01-2.01-3.44-4.18.89-2.65c2.74.13,5.48,1.64,8.2,2.76l-.79,1.54c-1.96,3.76-3.82,4.08-4.1,8.57Z"/>
      <path class="cls-5" d="M1454.67,787.47c44.07,14.98,89.21,28.14,133.28,43.43l9.35,3.03c15.32,3.86,34.09,11.52,49.65,16.28l-.08,1.99c-3.99,1.46-12.22-.3-16.68-.02-30.29,1.91-63.19.87-93.7.75-15.64-.06-48.1.72-62.65-.78l-.76.59c-3.78-6.25-10.88-16.6-15.71-21.89-.6-1.33-4.57-6.74-5.59-8.19-5.34-7.25-9.4-12.08-15.39-18.84l-2.11-2.89c.11-3.51,2.27-9.45,5.42-11.33,4.74-.66,5.79,2.22,10.58,2.64-.56-2.56-.54-1.29-.09-3.8l4.48-.98Z"/>
      <path class="cls-5" d="M1587.95,830.9l9.35,3.03c-2.44,0-4.1-.2-6.36.7l.19,2.12c-3.21,2.45-8.71,1.99-12.49,1.23,1.65-2.24,4.73-.72,9.01-3.89l.3-3.2Z"/>
      <path class="cls-2" d="M848.92,1098.56c-1.14,1.25-7.11,4.72-8.68,5.3-113.12,40.59-114.74-194.99-22.22-199.03,73.78-3.21,76.7,118.47,53.29,165.8-4.69,9.77-12.82,22.47-22.39,27.93Z"/>
      <path class="cls-3" d="M814.68,957.96c8.61-.7,14.4,2.25,18.3,10.26,10.02,20.58,11.32,80.35-10.76,92.86-13.67,1.84-18.76-13.72-20.87-24.62-4.45-22.96-7.17-62.21,13.33-78.5Z"/>
      <path class="cls-2" d="M293.99,902.05c6.23-.66,13.87-.91,20.07.15,13.71,2.36,25.92,10.09,33.9,21.49,22.1,31.65,9.53,73.37-20.83,94.8,12.51,16.61,33.78,57.53,26.41,80.26-5.24,16.17-27.51,14.57-36.04-2.46-5.9-11.78-9.36-20.18-14.12-33.64-2.63-7.65-5.67-15.05-8.68-22.55-5.89,2.23-12.03,4.26-18,6.32-1.29,15.14-.61,50.31-13.9,60.16-20.71,14.63-29.71-11.82-31.04-27.96-2.43-29.66,2.26-58.74.62-88.39-.43-7.76-.52-15.74-.58-23.5-.11-12.61-1.1-25.51,1.63-37.88,14.62-17.61,39.07-22.34,60.56-26.79Z"/>
      <path class="cls-3" d="M290.69,949.17c29.03-4.18,24.57,29.05,1.81,43.07-4.4,2.26-10.65,4.32-15.4,6.07-.04-15.43-.27-29.22-1.1-44.61,6.43-2.72,7.74-3.2,14.7-4.52Z"/>
      <path class="cls-2" d="M964.38,902.16c21.4-2.55,40.19,3.29,52.68,22.04,9.66,14.79,12.98,32.85,9.22,50.11-3.69,16.99-15.46,34.8-30.11,44.25,4.82,6.07,11.08,15.19,14.22,22.51,6.47,15.09,17.36,41.07,11.09,57.39-1.43,4.11-5.71,9.8-10.11,11.19-22.78,7.18-34.38-33.24-39.49-47.51-2.49-7.38-5.18-14.71-8.05-21.95-6.11,1.97-12.18,4.06-18.22,6.24-.76,14.51-1.97,53.46-13.06,60.12-23.43,14.06-31.18-14.03-31.5-29.71-.46-23.43-.46-42.74.51-64.45,1.19-26.66-3.57-58.53,1.06-83.55,13.45-17.04,41.33-23.35,61.76-26.68Z"/>
      <path class="cls-3" d="M959.26,949.02c29.61-3.12,24.95,29.76,2.85,43.01-5.32,2.74-10.05,4.15-15.7,6.06-.51-14.86-.68-29.14-1.43-44.08,6.02-2.86,7.48-3.69,14.28-4.99Z"/>
      <path class="cls-2" d="M565.86,905.13c10.34-.66,16.35-.26,26.2,4.79,15.15,9.48,26.83,36.8,29.8,55.19,4.67,28.99,32.87,127.13-5.1,140.01-26.95,9.14-27.18-43.05-29.08-60.3l-13.79,2.81c-8,1.59-16.63,2.21-24.79,2.99-2.08,14.37-6.33,45.65-22.62,51.97-25.82,10.7-26.88-30.76-24.83-46.34,5.77-43.84,16.41-135.19,64.22-151.12Z"/>
      <path class="cls-3" d="M570.11,952.33c15.86,7.22,14.76,38.86,15.79,54.14-6.56,1-13.45,1.82-20.05,2.71-3.37.37-9.67,1.74-13.24,2.38,2.5-16.79,5.54-48.32,17.5-59.23Z"/>
      <path class="cls-2" d="M460.63,900.25c9.27-1.33,16.91-.62,22.66,7.25,22.21,30.26-42.11,40.14-58.27,50.16-5.39,3.34-7.1,23.52-8.22,29.91,12.79-5.83,49.11-22.67,56.26-2.22,7.41,21.18-13.89,30.3-30.06,35.56-8.36,2.72-16.96,5.79-25.2,8.56-.43,7.83-.11,19.12-.14,27.23,18.67-4.2,47.7-19.85,64.73-10.46,20.92,22.27-8.93,38.31-26.78,45.5-10.75,4.33-20.87,9.65-32.28,12.37-11.71,2.85-24.08.69-34.14-5.95-5.95-3.91-12.3-10.4-13.13-18.62-4.45-43.86-10.59-117.13,11.66-156.33,7.64-13.46,57.39-20.66,72.9-22.97Z"/>
      <path class="cls-2" d="M1305.12,900.28c10.56-1.88,15.45.88,23.04,7.73,15.53,35.5-42.07,37.29-61.01,51.57-4.32,3.26-5.18,21.9-5.49,27.59,19.75-9.33,65.96-26.53,55.41,14.94-3.16,12.39-44.15,23.77-55.38,27.5l.22,27.18c16.75-4.28,49.77-20.72,64.49-9.25,4.74,5.63,5.19,8.78,6.86,15.75-1.14,3.66-2.52,8.06-5.55,10.99-13.96,13.49-51.21,29.93-70.14,31.23-11.58.79-27.09-8.16-35.15-16.12-.74-2.7-1.34-5.45-1.8-8.22-5.57-35.65-9.78-124.61,11.28-158.07,8.48-13.47,55.65-20.73,73.22-22.82Z"/>
      <path class="cls-2" d="M1436.35,900.3c12.18-1.5,27.01,8.74,24.49,20.73-4.94,23.51-47.14,26.19-63.85,38.08-4.48,3.18-5.33,22.54-5.94,28.41,12.9-6.13,49.97-23.38,56.5-1.16,8.27,28.14-37.35,37.19-56.25,42.89-.21,8.79.11,18.63.2,27.5,17.94-4.41,48.26-19.46,64.13-9.99,26.8,32.6-38.93,50.63-59.86,57.66-14.58,4.89-33.77-4.84-43.98-15.61-.59-2.6-1.08-5.22-1.48-7.85-5.48-35.72-9.94-124.73,11.19-157.67,9.2-14.35,57-20.96,74.85-22.99Z"/>
      <path class="cls-2" d="M166.58,901.19c44.49-3.14,58.64,43.95,49.71,79.39-3.4,11.7-18.02,19.56-29.35,14.96-17.61-7.16-5.53-41.11-20.35-46.24-4.39.01-8.6,1.75-11.71,4.84-16.13,15.66-24.22,88.21-5.65,106.5,13.91,13.7,39.33-4.86,57.98-4.1,15.66,4.93,12.08,22.25,4.48,32.28-19.55,25.82-57.43,31.77-83.28,11.83-19.68-15.17-28.86-36.99-31.96-60.61-6.47-49.27,11.28-130.14,70.12-138.84Z"/>
      <path class="cls-2" d="M1185.29,901.27c5.5-.66,10.89-.35,16.44-.24,8.12,4.66,13.36,11.08,8.07,20.39-11.1,19.53-41.13,31.15-61.17,37.34-.69,9.02-.51,18.9-.53,28.01,14.05-6.45,36.72-16.77,52.19-8.71,2.42,1.34,5.54,4.83,5.81,7.71,2.51,27.68-38.49,37.76-56.41,42.01-.38,7.41-.53,15.15-.79,22.6-.52,14.22.61,33.98-6.68,46.53-2.06,3.53-4.95,6.18-9,7.11-3.69.84-7.21-.03-10.24-2.28-10.83-8.03-13.73-29.73-15.48-42.12-2.97-21.1-6.47-120.73,3.89-133.03,11.64-13.8,56.36-23.4,73.9-25.33Z"/>
      <path class="cls-2" d="M674.57,955.44c-13.7.89-42.63,4.27-43.38-15.69-.64-16.82,25.41-26.24,39.04-28.93,17.13-2.83,92.7-21.19,92.96,9.41.17,19.13-27.83,26.57-44.12,30.23-1.48,26.94-3.49,53.9-4.05,80.89-.42,20.72,3.51,41.59-.46,62.14-.68,3.5-3.85,9.25-6.6,11.33-15.42,11.67-28.56-.25-31.36-15.78-1.46-11.08-2.09-22.26-1.9-33.44-1.4-10.16-.64-21.36-.9-31.54-.57-22.1,1.42-46.84.77-68.63Z"/>
      <path class="cls-2" d="M1532.82,897.07c10.99-.95,24.38,1.49,28.25,13.53,7.21,22.46-35.02,27.96-40.19,47.58-6.82,25.9,27.01,38.18,34.42,60.45,13.32,37.58-20.32,79.74-54.18,92.74-10.91,2.08-15.25.47-24.74-3.64-21.61-28.59,17.68-41.55,30.58-60.9,1.64-2.45,2.68-6.95,3.41-9.88-6.41-27.28-31.01-38.16-36.67-61.85-8.2-34.35,28.7-70.3,59.12-78.03Z"/>
      <path class="cls-4" d="M1191.22,1350.75c2.94,2.92,4.08,15.35.37,18.89-.45-6.67-3.47-14.75-.37-18.89Z"/>
      <path class="cls-1" d="M681.61.34c74.21-4.65,136.19,40.35,209.55,51.19,22.54,3.12,45.38,3.46,68,1.03,48.91-4.89,87.14-16.07,133.31,10.2,41.07,23,69.45,62.1,104.88,92.49,19.3,16.56,42.55,29.92,60.68,46.69,31.9,29.51,17.33,80.43-2.13,112.9-36.59,61.07-88.52,112.99-140.93,160.63-45.14,41.85-78.74,62.42-138.8,78.83-32.37,9.65-76.15,16.78-109.09,18.27-118.86,5.4-237.48-13.56-325.1-101.06-56.87-56.79-139.3-124.56-150.07-210.67-5.24-41.92,27.2-60.97,54.78-81.49,10.84-8.07,21.4-16.5,31.67-25.28,34.54-29.01,64.07-58.13,93.79-91.99,31.67-36.08,59.3-59.34,109.46-61.76Z"/>
      <path class="cls-4" d="M1265.8,232.27l2.02,1.78c.56,3.9.79,15.96-1.26,19.09l-.86-.72c.41-1.82,0-16.42.1-20.15Z"/>
    </g>
  </g>
</svg>